<svg width="16" height="16" viewBox="0 0 16 16" fill="none" xmlns="http://www.w3.org/2000/svg">
<path fill-rule="evenodd" clip-rule="evenodd" d="M0.941176 0C0.421379 0 0 0.421378 0 0.941176V4.70588C0 5.22568 0.421378 5.64706 0.941176 5.64706H4.70588C5.22568 5.64706 5.64706 5.22568 5.64706 4.70588V0.941176C5.64706 0.421379 5.22568 0 4.70588 0H0.941176ZM0.941176 10.3529C0.421379 10.3529 0 10.7743 0 11.2941V15.0588C0 15.5786 0.421378 16 0.941176 16H4.70588C5.22568 16 5.64706 15.5786 5.64706 15.0588V11.2941C5.64706 10.7743 5.22568 10.3529 4.70588 10.3529H0.941176ZM10.3529 0.941176C10.3529 0.421378 10.7743 0 11.2941 0H15.0588C15.5786 0 16 0.421379 16 0.941176V4.70588C16 5.22568 15.5786 5.64706 15.0588 5.64706H11.2941C10.7743 5.64706 10.3529 5.22568 10.3529 4.70588V0.941176ZM11.2941 10.3529C10.7743 10.3529 10.3529 10.7743 10.3529 11.2941V15.0588C10.3529 15.5786 10.7743 16 11.2941 16H15.0588C15.5786 16 16 15.5786 16 15.0588V11.2941C16 10.7743 15.5786 10.3529 15.0588 10.3529H11.2941Z" fill="#61657E"/>
</svg>
