<svg width="19" height="16" viewBox="0 0 19 16" fill="none" xmlns="http://www.w3.org/2000/svg">
<path fill-rule="evenodd" clip-rule="evenodd" d="M0.888889 0C0.397969 0 0 0.397969 0 0.888889C0 1.37981 0.397969 1.77778 0.888889 1.77778H1.86716C2.35807 1.77778 2.75604 1.37981 2.75604 0.888889C2.75604 0.397969 2.35807 0 1.86715 0H0.888889ZM5.4823 0C4.99138 0 4.59341 0.397969 4.59341 0.888889C4.59341 1.37981 4.99138 1.77778 5.4823 1.77778H18.1111C18.602 1.77778 19 1.37981 19 0.888889C19 0.397969 18.602 0 18.1111 0H5.4823ZM4.59341 8C4.59341 7.50908 4.99138 7.11111 5.4823 7.11111H18.1111C18.602 7.11111 19 7.50908 19 8C19 8.49092 18.602 8.88889 18.1111 8.88889H5.4823C4.99138 8.88889 4.59341 8.49092 4.59341 8ZM0.888889 7.11111C0.397969 7.11111 0 7.50908 0 8C0 8.49092 0.397969 8.88889 0.888889 8.88889H1.86716C2.35807 8.88889 2.75604 8.49092 2.75604 8C2.75604 7.50908 2.35807 7.11111 1.86715 7.11111H0.888889ZM4.59341 15.1111C4.59341 14.6202 4.99138 14.2222 5.4823 14.2222H18.1111C18.602 14.2222 19 14.6202 19 15.1111C19 15.602 18.602 16 18.1111 16H5.4823C4.99138 16 4.59341 15.602 4.59341 15.1111ZM0.888889 14.2222C0.397969 14.2222 0 14.6202 0 15.1111C0 15.602 0.397969 16 0.888889 16H1.86716C2.35807 16 2.75604 15.602 2.75604 15.1111C2.75604 14.6202 2.35807 14.2222 1.86715 14.2222H0.888889Z" fill="#B5BDCF"/>
</svg>
